<svg xmlns="http://www.w3.org/2000/svg" xmlns:xlink="http://www.w3.org/1999/xlink" viewBox="0,0,256,256" width="24px" height="24px"><g fill="#ffffff" fill-rule="nonzero" stroke="none" stroke-width="1" stroke-linecap="butt" stroke-linejoin="miter" stroke-miterlimit="10" stroke-dasharray="" stroke-dashoffset="0" font-family="none" font-weight="none" font-size="none" text-anchor="none" style="mix-blend-mode: normal"><g transform="scale(10.66667,10.66667)"><path d="M11,3v11.56055c-0.59163,-0.3469 -1.26933,-0.56055 -2,-0.56055c-2.19729,0 -4,1.80271 -4,4c0,2.19729 1.80271,4 4,4c2.19729,0 4,-1.80271 4,-4v-9h6v-6zM13,5h4v2h-4zM9,16c1.11641,0 2,0.88359 2,2c0,1.11641 -0.88359,2 -2,2c-1.11641,0 -2,-0.88359 -2,-2c0,-1.11641 0.88359,-2 2,-2z"></path></g></g></svg>